<svg width="140" height="51" viewBox="0 0 140 51" fill="none" xmlns="http://www.w3.org/2000/svg">
<g clip-path="url(#clip0_117_289)">
<path d="M52.9823 41.1941C52.4243 41.1941 51.9283 41.0566 51.5 40.7817C51.0604 40.5125 50.7222 40.1459 50.4742 39.6762C50.2263 39.2008 50.1079 38.6796 50.1079 38.1011C50.1079 37.5226 50.2263 36.9555 50.4742 36.4687C50.711 35.9818 51.0491 35.6038 51.4887 35.3231C51.9283 35.0539 52.4299 34.9107 52.9935 34.9107C53.5571 34.9107 54.0587 35.0482 54.4871 35.3231C54.9154 35.5923 55.2479 35.9761 55.4846 36.4515C55.7157 36.9383 55.8341 37.4767 55.8341 38.061C55.8341 38.6452 55.7157 39.1664 55.4846 39.6418C55.2479 40.1172 54.9154 40.501 54.4871 40.7702C54.0587 41.0509 53.5515 41.1883 52.9823 41.1883V41.1941ZM50.9589 38.0839C50.9589 38.5421 51.0491 38.9488 51.2238 39.3154C51.3985 39.6819 51.6353 39.9683 51.9452 40.1745C52.2496 40.3807 52.5934 40.4838 52.9879 40.4838C53.3824 40.4838 53.7206 40.3807 54.0249 40.1745C54.3293 39.9683 54.5547 39.6819 54.7294 39.3154C54.8929 38.9545 54.9774 38.5421 54.9774 38.0839C54.9774 37.597 54.8929 37.1732 54.7294 36.8009C54.5547 36.44 54.3236 36.1479 54.0249 35.9417C53.7262 35.7355 53.3824 35.6324 52.9992 35.6324C52.6159 35.6324 52.2552 35.7355 51.9565 35.9417C51.6465 36.1479 51.3985 36.4343 51.2238 36.8066C51.0491 37.1789 50.9589 37.6085 50.9589 38.0839Z" fill="white"/>
<path d="M58.4435 41.1941C58.0208 41.1941 57.6713 41.0738 57.4008 40.8218C57.1246 40.5812 56.9894 40.2089 56.9894 39.7049V37.0987H56.2285V36.3828H56.9894V34.9565H57.7671L57.7784 36.3828H59.3452V37.0987H57.7671V39.722C57.7671 39.9912 57.8291 40.1803 57.9588 40.3005C58.0771 40.4208 58.2518 40.4781 58.4604 40.4781C58.6238 40.4781 58.7703 40.438 58.9 40.3578C59.0183 40.2719 59.1198 40.1688 59.1818 40.0428L59.7792 40.5468C59.6214 40.7416 59.4297 40.902 59.193 41.0222C58.9563 41.1425 58.7083 41.1998 58.4435 41.1998V41.1941Z" fill="white"/>
<path d="M62.4056 41.1941C61.9772 41.1941 61.5827 41.091 61.2446 40.879C60.8951 40.6671 60.619 40.375 60.4274 40.0027C60.2357 39.6304 60.1343 39.2123 60.1343 38.7483C60.1343 38.2557 60.2357 37.8147 60.4274 37.4424C60.619 37.0815 60.8839 36.7894 61.2333 36.5832C61.5715 36.3885 61.966 36.2854 62.4056 36.2854C62.8452 36.2854 63.2397 36.3885 63.5891 36.5832C63.9273 36.7894 64.2035 37.0758 64.3951 37.4424C64.5867 37.8147 64.6881 38.25 64.6881 38.7483C64.6881 39.2466 64.598 39.6418 64.4063 40.0027C64.2147 40.375 63.9498 40.6614 63.6117 40.879C63.2622 41.091 62.8621 41.1941 62.4112 41.1941H62.4056ZM60.912 38.7655C60.912 39.092 60.974 39.3898 61.1037 39.6476C61.222 39.911 61.3967 40.1115 61.6278 40.2547C61.8589 40.4036 62.1125 40.4781 62.3999 40.4781C62.6874 40.4781 62.9579 40.4036 63.189 40.2547C63.4201 40.1172 63.5948 39.911 63.7188 39.6476C63.8484 39.3841 63.9104 39.0862 63.9104 38.7655C63.9104 38.4104 63.8484 38.1068 63.7188 37.8319C63.5891 37.5684 63.4144 37.3679 63.189 37.219C62.9579 37.0815 62.693 37.0071 62.3999 37.0071C61.9491 37.0071 61.594 37.1674 61.3291 37.4825C61.0529 37.809 60.9177 38.2385 60.9177 38.7655H60.912Z" fill="white"/>
<path d="M67.8216 37.2305C67.675 37.0701 67.4665 36.9956 67.1791 36.9956C66.8747 37.0071 66.6098 37.1331 66.4013 37.3679C66.1815 37.6085 66.0688 37.935 66.0688 38.3474L66.0801 41.1024H65.291V36.3828H66.0801V37.2133C66.1702 36.9269 66.3449 36.7035 66.6098 36.5317C66.8747 36.3713 67.1509 36.2911 67.4327 36.2911C67.7708 36.2911 68.0583 36.3656 68.2837 36.5145L67.8159 37.2305H67.8216Z" fill="white"/>
<path d="M71.4285 37.2305C71.282 37.0701 71.0734 36.9956 70.786 36.9956C70.4817 37.0071 70.2168 37.1331 70.0082 37.3679C69.7884 37.6085 69.6757 37.935 69.6757 38.3474L69.687 41.1024H68.8979V36.3828H69.687V37.2133C69.7772 36.9269 69.9519 36.7035 70.2168 36.5317C70.4817 36.3713 70.7578 36.2911 71.0396 36.2911C71.3778 36.2911 71.6652 36.3656 71.8906 36.5145L71.4229 37.2305H71.4285Z" fill="white"/>
<path d="M72.4321 35.3575C72.4321 35.2372 72.4772 35.1226 72.5618 35.0424C72.6463 34.9623 72.7477 34.9222 72.8661 34.9222C72.9845 34.9222 73.0972 34.9623 73.1761 35.0424C73.2606 35.1284 73.2944 35.2372 73.2944 35.3575C73.2944 35.4778 73.255 35.5809 73.1761 35.6668C73.0915 35.7527 72.9845 35.7985 72.8661 35.7985C72.7477 35.7985 72.6463 35.7527 72.5618 35.6668C72.4772 35.5809 72.4321 35.4778 72.4321 35.3575ZM72.4716 36.3827H73.2493V41.1024H72.4716V36.3827Z" fill="white"/>
<path d="M73.9312 36.3828H74.7089V37.2935C74.8273 36.9842 75.0302 36.7436 75.2951 36.566C75.56 36.3885 75.8699 36.2968 76.2137 36.2854C76.8731 36.2567 77.3691 36.4343 77.7073 36.8181C78.0454 37.2018 78.2089 37.7574 78.2089 38.5135V41.1024H77.4311V38.6051C77.4311 38.1125 77.3296 37.723 77.1211 37.4309C76.9126 37.1388 76.5913 37.0013 76.1517 37.0013C75.7121 37.0128 75.3627 37.1675 75.1091 37.4768C74.8442 37.7918 74.7146 38.2099 74.7146 38.7426V41.0967H73.9368V36.377L73.9312 36.3828Z" fill="white"/>
<path d="M81.0945 41.1941C80.6662 41.1941 80.2717 41.091 79.9335 40.879C79.5841 40.6671 79.3079 40.375 79.1163 40.0027C78.9247 39.6304 78.8232 39.2123 78.8232 38.7483C78.8232 38.2557 78.9247 37.8147 79.1163 37.4424C79.3079 37.0815 79.5728 36.7894 79.9223 36.5832C80.2604 36.3885 80.6549 36.2854 81.0945 36.2854C81.5341 36.2854 81.9287 36.3885 82.2781 36.5832C82.6163 36.7894 82.8924 37.0758 83.084 37.4424C83.2757 37.8147 83.3771 38.25 83.3771 38.7483C83.3771 39.2466 83.2869 39.6418 83.0953 40.0027C82.9037 40.375 82.6388 40.6614 82.3006 40.879C81.9512 41.091 81.551 41.1941 81.1002 41.1941H81.0945ZM79.601 38.7655C79.601 39.092 79.663 39.3898 79.7926 39.6476C79.911 39.911 80.0857 40.1115 80.3168 40.2547C80.5478 40.4036 80.8015 40.4781 81.0889 40.4781C81.3763 40.4781 81.6469 40.4036 81.8779 40.2547C82.109 40.1172 82.2837 39.911 82.4077 39.6476C82.5373 39.3841 82.5993 39.0862 82.5993 38.7655C82.5993 38.4104 82.5373 38.1068 82.4077 37.8319C82.2781 37.5684 82.1034 37.3679 81.8779 37.219C81.6469 37.0815 81.382 37.0071 81.0889 37.0071C80.638 37.0071 80.283 37.1674 80.0181 37.4825C79.7419 37.809 79.6066 38.2385 79.6066 38.7655H79.601Z" fill="white"/>
<path d="M85.3441 41.1941C84.9665 41.1941 84.6565 41.0795 84.3916 40.8504C84.1267 40.627 83.9858 40.2662 83.9858 39.7507V34.9565H84.7636V39.7621C84.7636 40.2375 84.9665 40.4781 85.361 40.4781C85.5245 40.4781 85.671 40.4323 85.7893 40.3464L86.0373 41.028C85.8288 41.1425 85.5977 41.1941 85.3385 41.1941H85.3441Z" fill="white"/>
<path d="M86.6118 37.6085C86.7302 37.1789 86.95 36.8524 87.2881 36.6233C87.6263 36.3999 88.0095 36.2854 88.4604 36.2854C89.1029 36.2854 89.5876 36.4801 89.9201 36.8811C90.2527 37.282 90.4217 37.8319 90.433 38.5307C90.4443 38.6681 90.4443 38.8743 90.4443 39.155L90.433 39.8652C90.433 40.3292 90.619 40.5468 90.991 40.501V41.1998C90.9459 41.2112 90.8895 41.2112 90.8163 41.2112C90.1681 41.2112 89.8074 40.8848 89.7454 40.2433L89.7285 39.9454C89.6271 40.3177 89.4467 40.6041 89.1762 40.8103C88.9057 41.0165 88.607 41.1482 88.2575 41.1941C88.1223 41.2055 88.0208 41.2112 87.9532 41.2112C87.5249 41.2112 87.1641 41.091 86.888 40.8504C86.6118 40.6156 86.4766 40.2833 86.4766 39.8538C86.4766 39.4242 86.6062 39.1206 86.8598 38.8858C87.1078 38.6509 87.446 38.5135 87.8686 38.4505C88.2012 38.3875 88.6633 38.3588 89.2607 38.3588L89.6383 38.3703C89.6271 37.9407 89.5369 37.6085 89.3453 37.3736C89.1536 37.1388 88.8662 37.0185 88.4942 37.0185C88.2181 37.0185 87.9814 37.0815 87.7785 37.2247C87.5756 37.3679 87.4403 37.5684 87.367 37.8376L86.6062 37.6257L86.6118 37.6085ZM87.26 39.7736C87.26 39.997 87.3445 40.1745 87.5079 40.2948C87.6658 40.4265 87.8856 40.4896 88.1561 40.4896C88.3928 40.4896 88.6351 40.4323 88.8606 40.3292C89.086 40.2261 89.2833 40.0657 89.4298 39.8652C89.5763 39.6705 89.6496 39.4356 89.6496 39.1779V38.8972C89.5876 38.8858 89.4636 38.8858 89.3115 38.8858C89.0917 38.8858 88.8606 38.8972 88.6126 38.9144C88.3646 38.9316 88.1617 38.9545 88.0152 38.9774C87.7954 39.0232 87.6094 39.1092 87.4741 39.2409C87.3276 39.3784 87.2543 39.5559 87.2543 39.7736H87.26Z" fill="white"/>
<path d="M94.1307 37.2305C93.9841 37.0701 93.7756 36.9956 93.4882 36.9956C93.1838 37.0071 92.9189 37.1331 92.7104 37.3679C92.4906 37.6085 92.3779 37.935 92.3779 38.3474L92.3891 41.1024H91.6001V36.3828H92.3891V37.2133C92.4793 36.9269 92.654 36.7035 92.9189 36.5317C93.1838 36.3713 93.46 36.2911 93.7418 36.2911C94.0799 36.2911 94.3674 36.3656 94.5928 36.5145L94.125 37.2305H94.1307Z" fill="white"/>
<path d="M95.1338 35.3575C95.1338 35.2372 95.1789 35.1226 95.2634 35.0424C95.348 34.9623 95.4494 34.9222 95.5678 34.9222C95.6861 34.9222 95.7988 34.9623 95.8777 35.0424C95.9623 35.1284 95.9961 35.2372 95.9961 35.3575C95.9961 35.4778 95.9566 35.5809 95.8777 35.6668C95.7932 35.7527 95.6861 35.7985 95.5678 35.7985C95.4494 35.7985 95.348 35.7527 95.2634 35.6668C95.1789 35.5809 95.1338 35.4778 95.1338 35.3575ZM95.1676 36.3827H95.9454V41.1024H95.1676V36.3827Z" fill="white"/>
<path d="M96.6328 36.3828H97.4106V37.2935C97.5289 36.9842 97.7318 36.7436 97.9967 36.566C98.2616 36.3885 98.5716 36.2968 98.9154 36.2854C99.5748 36.2567 100.071 36.4343 100.409 36.8181C100.747 37.2018 100.911 37.7574 100.911 38.5135V41.1024H100.133V38.6051C100.133 38.1125 100.031 37.723 99.8228 37.4309C99.6142 37.1388 99.293 37.0013 98.8534 37.0013C98.4138 37.0128 98.0643 37.1675 97.8107 37.4768C97.5458 37.7918 97.4162 38.2099 97.4162 38.7426V41.0967H96.6384V36.377L96.6328 36.3828Z" fill="white"/>
<path d="M103.717 42.8838C103.046 42.8838 102.517 42.7635 102.122 42.5115C101.716 42.2594 101.519 41.9043 101.519 41.4289C101.519 41.1482 101.604 40.9077 101.756 40.7129C101.908 40.5182 102.094 40.3865 102.325 40.312C102.105 40.2719 101.942 40.1974 101.823 40.0886C101.705 39.9855 101.649 39.848 101.649 39.6762C101.649 39.4872 101.705 39.3325 101.823 39.2008C101.942 39.0805 102.105 38.9946 102.325 38.9488C102.105 38.8571 101.93 38.6968 101.801 38.4848C101.671 38.2729 101.609 38.0495 101.609 37.7975C101.609 37.4825 101.699 37.2018 101.885 36.967C102.06 36.7321 102.308 36.5489 102.629 36.4171C102.951 36.2968 103.306 36.2281 103.717 36.2281C103.926 36.2281 104.1 36.2453 104.23 36.2739C104.314 36.0047 104.438 35.7871 104.624 35.6496C104.799 35.5121 105.053 35.4377 105.385 35.4377C105.498 35.4377 105.577 35.4377 105.645 35.4491L105.532 36.0334C105.357 36.0162 105.211 36.0334 105.109 36.0964C104.996 36.1594 104.918 36.2739 104.85 36.4228C105.154 36.5431 105.38 36.7321 105.554 36.9842C105.718 37.2362 105.802 37.5054 105.802 37.7918C105.802 38.2786 105.611 38.6567 105.228 38.9259C104.833 39.1951 104.331 39.3383 103.717 39.3383C103.559 39.3383 103.435 39.3268 103.323 39.3096C103.204 39.2925 103.091 39.281 102.99 39.281C102.804 39.281 102.669 39.3096 102.567 39.3726C102.466 39.4356 102.41 39.5387 102.41 39.659C102.41 39.7793 102.472 39.8652 102.612 39.9111C102.753 39.9569 102.922 39.9741 103.153 39.9741L103.751 39.9626C104.382 39.9626 104.906 40.0829 105.301 40.3349C105.695 40.5869 105.898 40.9306 105.898 41.3774C105.898 41.8528 105.695 42.2251 105.295 42.4828C104.884 42.7348 104.36 42.8666 103.717 42.8666V42.8838ZM102.291 41.3659C102.291 41.6179 102.41 41.8241 102.658 41.9616C102.905 42.0991 103.255 42.1735 103.723 42.1735C104.151 42.1735 104.5 42.0991 104.76 41.9501C105.008 41.7898 105.137 41.595 105.137 41.3544C105.137 41.1139 105.008 40.9249 104.76 40.7759C104.5 40.627 104.157 40.5526 103.723 40.5526C103.289 40.5526 102.951 40.6156 102.686 40.7416C102.421 40.8619 102.291 41.0795 102.291 41.3659ZM102.381 37.809C102.381 38.0896 102.494 38.313 102.719 38.4677C102.939 38.628 103.272 38.7082 103.717 38.7082C104.128 38.7082 104.461 38.6223 104.686 38.4562C104.918 38.2958 105.036 38.0839 105.036 37.8147C105.036 37.5455 104.923 37.3278 104.698 37.1732C104.467 37.0128 104.145 36.9383 103.717 36.9383C103.289 36.9383 102.928 37.0128 102.708 37.1617C102.488 37.3221 102.376 37.534 102.376 37.8032L102.381 37.809Z" fill="white"/>
<path d="M108.671 41.1941C108.243 41.1941 107.848 41.091 107.51 40.879C107.161 40.6671 106.885 40.375 106.693 40.0027C106.501 39.6304 106.4 39.2123 106.4 38.7483C106.4 38.2557 106.501 37.8147 106.693 37.4424C106.885 37.0815 107.149 36.7894 107.499 36.5832C107.837 36.3885 108.232 36.2854 108.671 36.2854C109.111 36.2854 109.505 36.3885 109.855 36.5832C110.193 36.7894 110.469 37.0758 110.661 37.4424C110.852 37.8147 110.954 38.25 110.954 38.7483C110.954 39.2466 110.864 39.6418 110.672 40.0027C110.48 40.375 110.215 40.6614 109.877 40.879C109.528 41.091 109.128 41.1941 108.677 41.1941H108.671ZM107.178 38.7655C107.178 39.092 107.24 39.3898 107.369 39.6476C107.488 39.911 107.662 40.1115 107.893 40.2547C108.125 40.4036 108.378 40.4781 108.666 40.4781C108.953 40.4781 109.224 40.4036 109.455 40.2547C109.686 40.1172 109.86 39.911 109.984 39.6476C110.114 39.3841 110.176 39.0862 110.176 38.7655C110.176 38.4104 110.114 38.1068 109.984 37.8319C109.855 37.5684 109.68 37.3679 109.455 37.219C109.224 37.0815 108.959 37.0071 108.666 37.0071C108.215 37.0071 107.86 37.1674 107.595 37.4825C107.319 37.809 107.183 38.2385 107.183 38.7655H107.178Z" fill="white"/>
<path d="M112.921 41.1941C112.543 41.1941 112.233 41.0795 111.968 40.8504C111.703 40.627 111.562 40.2662 111.562 39.7507V34.9565H112.34V39.7621C112.34 40.2375 112.543 40.4781 112.938 40.4781C113.101 40.4781 113.248 40.4323 113.366 40.3464L113.614 41.028C113.405 41.1425 113.174 41.1941 112.915 41.1941H112.921Z" fill="white"/>
<path d="M116.263 41.1941C115.835 41.1941 115.44 41.091 115.102 40.879C114.753 40.6671 114.476 40.375 114.285 40.0027C114.093 39.6304 113.992 39.2123 113.992 38.7483C113.992 38.2557 114.093 37.8147 114.285 37.4424C114.476 37.0815 114.741 36.7894 115.091 36.5832C115.429 36.3885 115.823 36.2854 116.263 36.2854C116.703 36.2854 117.097 36.3885 117.447 36.5832C117.785 36.7894 118.061 37.0758 118.252 37.4424C118.444 37.8147 118.546 38.25 118.546 38.7483C118.546 39.2466 118.455 39.6418 118.264 40.0027C118.072 40.375 117.807 40.6614 117.469 40.879C117.12 41.091 116.72 41.1941 116.269 41.1941H116.263ZM114.769 38.7655C114.769 39.092 114.831 39.3898 114.961 39.6476C115.079 39.911 115.254 40.1115 115.485 40.2547C115.716 40.4036 115.97 40.4781 116.257 40.4781C116.545 40.4781 116.815 40.4036 117.046 40.2547C117.277 40.1172 117.452 39.911 117.576 39.6476C117.706 39.3841 117.768 39.0862 117.768 38.7655C117.768 38.4104 117.706 38.1068 117.576 37.8319C117.447 37.5684 117.272 37.3679 117.046 37.219C116.815 37.0815 116.55 37.0071 116.257 37.0071C115.806 37.0071 115.451 37.1674 115.187 37.4825C114.91 37.809 114.775 38.2385 114.775 38.7655H114.769Z" fill="white"/>
<path d="M121.352 42.8838C120.682 42.8838 120.152 42.7635 119.757 42.5115C119.352 42.2594 119.154 41.9043 119.154 41.4289C119.154 41.1482 119.239 40.9077 119.391 40.7129C119.549 40.5182 119.729 40.3865 119.96 40.312C119.74 40.2719 119.577 40.1974 119.459 40.0886C119.34 39.9855 119.284 39.848 119.284 39.6762C119.284 39.4872 119.34 39.3325 119.459 39.2008C119.577 39.0805 119.74 38.9946 119.96 38.9488C119.74 38.8571 119.566 38.6968 119.436 38.4848C119.306 38.2729 119.244 38.0495 119.244 37.7975C119.244 37.4825 119.335 37.2018 119.521 36.967C119.695 36.7321 119.943 36.5489 120.265 36.4171C120.586 36.2968 120.941 36.2281 121.352 36.2281C121.561 36.2281 121.736 36.2453 121.865 36.2739C121.95 36.0047 122.074 35.7871 122.26 35.6496C122.434 35.5121 122.688 35.4377 123.021 35.4377C123.133 35.4377 123.212 35.4377 123.28 35.4491L123.167 36.0334C122.992 36.0162 122.846 36.0334 122.744 36.0964C122.632 36.1594 122.553 36.2739 122.485 36.4228C122.79 36.5431 123.015 36.7321 123.19 36.9842C123.353 37.2362 123.438 37.5054 123.438 37.7918C123.438 38.2786 123.246 38.6567 122.863 38.9259C122.468 39.1951 121.967 39.3383 121.352 39.3383C121.195 39.3383 121.071 39.3268 120.958 39.3096C120.839 39.2925 120.727 39.281 120.625 39.281C120.439 39.281 120.304 39.3096 120.203 39.3726C120.101 39.4356 120.045 39.5387 120.045 39.659C120.045 39.7793 120.107 39.8652 120.248 39.9111C120.389 39.9569 120.558 39.9741 120.789 39.9741L121.386 39.9626C122.017 39.9626 122.542 40.0829 122.936 40.3349C123.331 40.5869 123.533 40.9306 123.533 41.3774C123.533 41.8528 123.331 42.2251 122.93 42.4828C122.519 42.7348 121.995 42.8666 121.352 42.8666V42.8838ZM119.921 41.3659C119.921 41.6179 120.039 41.8241 120.287 41.9616C120.535 42.0991 120.885 42.1735 121.352 42.1735C121.781 42.1735 122.13 42.0991 122.389 41.9501C122.637 41.7898 122.767 41.595 122.767 41.3544C122.767 41.1139 122.637 40.9249 122.389 40.7759C122.13 40.627 121.786 40.5526 121.352 40.5526C120.918 40.5526 120.58 40.6156 120.315 40.7416C120.05 40.8619 119.921 41.0795 119.921 41.3659ZM120.011 37.809C120.011 38.0896 120.124 38.313 120.349 38.4677C120.569 38.628 120.901 38.7082 121.347 38.7082C121.758 38.7082 122.091 38.6223 122.316 38.4562C122.547 38.2958 122.666 38.0839 122.666 37.8147C122.666 37.5455 122.553 37.3278 122.327 37.1732C122.096 37.0128 121.775 36.9383 121.347 36.9383C120.918 36.9383 120.558 37.0128 120.338 37.1617C120.118 37.3221 120.005 37.534 120.005 37.8032L120.011 37.809Z" fill="white"/>
<path d="M124.176 35.3575C124.176 35.2372 124.221 35.1226 124.305 35.0424C124.39 34.9565 124.491 34.9222 124.61 34.9222C124.728 34.9222 124.841 34.9623 124.92 35.0424C125.004 35.1284 125.038 35.2372 125.038 35.3575C125.038 35.4778 124.999 35.5809 124.92 35.6668C124.835 35.7527 124.728 35.7985 124.61 35.7985C124.491 35.7985 124.39 35.7527 124.305 35.6668C124.221 35.5809 124.176 35.4778 124.176 35.3575ZM124.215 36.3827H124.993V41.1024H124.215V36.3827Z" fill="white"/>
<path d="M125.697 37.6085C125.816 37.1789 126.035 36.8524 126.374 36.6233C126.712 36.3999 127.095 36.2854 127.546 36.2854C128.188 36.2854 128.673 36.4801 129.006 36.8811C129.338 37.282 129.507 37.8319 129.518 38.5307C129.53 38.6681 129.53 38.8743 129.53 39.155L129.518 39.8652C129.518 40.3292 129.704 40.5468 130.076 40.501V41.1998C130.031 41.2112 129.975 41.2112 129.902 41.2112C129.254 41.2112 128.893 40.8848 128.831 40.2433L128.814 39.9454C128.713 40.3177 128.532 40.6041 128.262 40.8103C127.997 41.0165 127.692 41.1482 127.343 41.1941C127.208 41.2055 127.106 41.2112 127.039 41.2112C126.61 41.2112 126.25 41.091 125.973 40.8504C125.697 40.6156 125.562 40.2833 125.562 39.8538C125.562 39.4242 125.692 39.1206 125.945 38.8858C126.193 38.6509 126.531 38.5135 126.954 38.4505C127.287 38.3875 127.749 38.3588 128.346 38.3588L128.724 38.3703C128.713 37.9407 128.622 37.6085 128.431 37.3736C128.239 37.1388 127.952 37.0185 127.58 37.0185C127.304 37.0185 127.067 37.0815 126.864 37.2247C126.661 37.3622 126.526 37.5684 126.452 37.8376L125.692 37.6257L125.697 37.6085ZM126.345 39.7736C126.345 39.997 126.43 40.1745 126.593 40.2948C126.751 40.4265 126.971 40.4896 127.242 40.4896C127.478 40.4896 127.721 40.4323 127.946 40.3292C128.171 40.2261 128.369 40.0657 128.515 39.8652C128.662 39.6705 128.735 39.4356 128.735 39.1779V38.8972C128.673 38.8858 128.549 38.8858 128.397 38.8858C128.177 38.8858 127.946 38.8972 127.698 38.9144C127.45 38.9316 127.247 38.9545 127.101 38.9774C126.881 39.0232 126.695 39.1092 126.56 39.2409C126.413 39.3784 126.34 39.5559 126.34 39.7736H126.345Z" fill="white"/>
<path d="M51.9452 49.5509C51.5901 49.5509 51.2689 49.4879 51.004 49.339C50.7278 49.2015 50.5193 49.0125 50.3727 48.7719C50.2149 48.5371 50.136 48.2679 50.1135 47.9815C50.0571 47.2197 50.4686 46.6125 51.359 46.1772C51.0772 45.8966 50.8743 45.6388 50.7334 45.404C50.5982 45.1691 50.5249 44.9171 50.5249 44.6594C50.5249 44.2241 50.6827 43.8747 51.004 43.6055C51.3252 43.342 51.7254 43.216 52.2213 43.216C52.6891 43.216 53.0836 43.3363 53.3936 43.5883C53.698 43.8403 53.8501 44.1668 53.8501 44.5735C53.8501 44.9572 53.7205 45.2894 53.4725 45.5586C53.2133 45.8393 52.8864 46.0799 52.4919 46.2918L53.822 47.8211C53.9798 47.6321 54.1883 47.3858 54.4476 47.0765C54.6955 46.7672 54.859 46.5667 54.9435 46.4636L55.4 46.939C55.2535 47.1166 55.0506 47.3571 54.8026 47.6664C54.5546 47.9757 54.3799 48.1705 54.2897 48.2621L54.4645 48.4683C54.6392 48.6803 54.8139 48.7834 54.9886 48.7834C55.1351 48.7834 55.2817 48.6974 55.4395 48.5313L55.8453 49.0354C55.7269 49.1958 55.586 49.3218 55.4226 49.4077C55.2591 49.4936 55.0844 49.5394 54.9097 49.5394C54.5715 49.5394 54.2672 49.402 54.0136 49.1098L53.7374 48.8406C53.2865 49.316 52.6948 49.5566 51.9508 49.5566L51.9452 49.5509ZM50.942 47.781C50.942 48.0674 51.0547 48.3137 51.2632 48.5256C51.4718 48.7375 51.7479 48.8521 52.1086 48.8521C52.5764 48.8521 52.954 48.6745 53.2358 48.3309L51.7874 46.6641C51.5225 46.8245 51.3196 46.9906 51.1731 47.1567C51.0152 47.3228 50.942 47.529 50.942 47.781ZM51.3816 44.688C51.3816 44.8656 51.4267 45.0259 51.5168 45.1634C51.607 45.3123 51.8099 45.5472 52.1199 45.8622C52.4242 45.6675 52.6497 45.4727 52.8188 45.2952C52.9878 45.1176 53.0667 44.8942 53.0667 44.6365C53.0667 44.4245 52.9822 44.2355 52.83 44.0866C52.6722 43.9491 52.475 43.8747 52.2439 43.8747C51.9959 43.8747 51.7874 43.9491 51.6296 44.098C51.4661 44.247 51.3816 44.4417 51.3816 44.6937V44.688Z" fill="white"/>
<path d="M59.165 43.2847H61.3293C62.0901 43.2847 62.6199 43.4623 62.9242 43.8174C63.2286 44.1782 63.3751 44.6021 63.3751 45.0718C63.3751 45.4899 63.2455 45.8565 62.9975 46.16C62.7495 46.4751 62.3268 46.6641 61.7407 46.7271L61.5378 46.7385L62.5297 48.3022C62.7382 48.6287 62.9693 48.7948 63.2173 48.7948C63.3638 48.7948 63.5104 48.7318 63.6456 48.6058L63.9782 49.1728C63.6738 49.4134 63.3751 49.5337 63.082 49.5337C62.6593 49.5337 62.3043 49.2931 61.9999 48.8005L60.698 46.7901H59.9484V49.4249H59.1707V43.279L59.165 43.2847ZM61.2785 46.0684C62.1014 46.0684 62.5128 45.7305 62.5128 45.0603C62.5128 44.7338 62.4226 44.4818 62.231 44.2871C62.0394 44.0923 61.7181 44.0007 61.2673 44.0007H59.9372V46.0684H61.2729H61.2785Z" fill="white"/>
<path d="M64.564 43.6799C64.564 43.5596 64.6091 43.4451 64.6936 43.3649C64.7781 43.2847 64.8796 43.2446 64.9979 43.2446C65.1163 43.2446 65.229 43.2847 65.3079 43.3649C65.3925 43.4508 65.4263 43.5596 65.4263 43.6799C65.4263 43.8002 65.3868 43.9033 65.3079 43.9892C65.2234 44.0751 65.1163 44.121 64.9979 44.121C64.8796 44.121 64.7781 44.0751 64.6936 43.9892C64.6091 43.9033 64.564 43.8002 64.564 43.6799ZM64.5978 44.7052H65.3755V49.4249H64.5978V44.7052Z" fill="white"/>
<path d="M66.0635 44.7052H66.8412V45.6159C66.9596 45.3066 67.1625 45.066 67.4274 44.8885C67.6923 44.7109 68.0022 44.6193 68.346 44.6078C69.0055 44.5792 69.5014 44.7567 69.8396 45.1405C70.1777 45.5243 70.3412 46.0798 70.3412 46.8359V49.4249H69.5634V46.9276C69.5634 46.435 69.462 46.0455 69.2534 45.7534C69.0449 45.467 68.7237 45.3238 68.284 45.3238C67.8444 45.3352 67.495 45.4899 67.2414 45.7992C66.9765 46.1142 66.8469 46.5323 66.8469 47.065V49.4191H66.0691V44.6995L66.0635 44.7052Z" fill="white"/>
<path d="M73.2264 49.5222C72.798 49.5222 72.4035 49.4191 72.0654 49.2072C71.7159 48.9953 71.4398 48.7032 71.2481 48.3309C71.0565 47.9586 70.9551 47.5404 70.9551 47.0765C70.9551 46.5839 71.0565 46.1429 71.2481 45.7706C71.4398 45.4097 71.7047 45.1176 72.0541 44.9114C72.3922 44.7166 72.7868 44.6135 73.2264 44.6135C73.666 44.6135 74.0605 44.7166 74.4099 44.9114C74.7481 45.1176 75.0243 45.404 75.2159 45.7706C75.4075 46.1429 75.5089 46.5782 75.5089 47.0765C75.5089 47.5748 75.4188 47.97 75.2271 48.3309C75.0355 48.7032 74.7706 48.9896 74.4325 49.2072C74.083 49.4191 73.6829 49.5222 73.232 49.5222H73.2264ZM71.7328 47.0937C71.7328 47.4201 71.7948 47.718 71.9245 47.9757C72.0428 48.2392 72.2175 48.4397 72.4486 48.5829C72.6797 48.7318 72.9333 48.8063 73.2207 48.8063C73.5082 48.8063 73.7787 48.7318 74.0098 48.5829C74.2408 48.4454 74.4156 48.2392 74.5396 47.9757C74.6692 47.7123 74.7312 47.4144 74.7312 47.0937C74.7312 46.7385 74.6692 46.435 74.5396 46.16C74.4099 45.8966 74.2352 45.6961 74.0098 45.5472C73.7787 45.4097 73.5138 45.3352 73.2207 45.3352C72.7699 45.3352 72.4148 45.4956 72.1499 45.8106C71.8737 46.1371 71.7385 46.5667 71.7385 47.0937H71.7328Z" fill="white"/>
<path d="M76.1177 44.7052H76.8954V45.5987C77.0589 45.2894 77.3012 45.0489 77.5999 44.8713C77.8986 44.6937 78.2312 44.6078 78.6088 44.6078C79.0315 44.6078 79.4034 44.7109 79.736 44.9228C80.0572 45.1348 80.3108 45.4326 80.4968 45.8049C80.6715 46.1772 80.7617 46.5896 80.7617 47.0364C80.7617 47.5691 80.6715 48.0158 80.4856 48.3939C80.2939 48.7776 80.0347 49.0526 79.6965 49.253C79.3584 49.4478 78.9526 49.5337 78.5073 49.5165C78.1523 49.5051 77.831 49.4249 77.5549 49.253C77.2731 49.0927 77.0589 48.8635 76.9067 48.5657V50.9943H76.1177V44.6995V44.7052ZM76.8954 47.0536C76.8954 47.6034 77.042 48.033 77.335 48.3366C77.6168 48.6459 77.9832 48.8005 78.4341 48.8005C78.7271 48.8005 78.992 48.7261 79.2287 48.5886C79.4598 48.4512 79.6402 48.2507 79.7811 47.9815C79.9163 47.718 79.984 47.4144 79.984 47.0478C79.984 46.7099 79.922 46.4121 79.7811 46.1543C79.6458 45.8908 79.4485 45.6904 79.2231 45.5472C78.9864 45.4097 78.7215 45.3352 78.4284 45.3352C78.1354 45.3352 77.8874 45.3983 77.6563 45.5414C77.4252 45.6846 77.2449 45.8851 77.104 46.1486C76.9631 46.4121 76.8954 46.7099 76.8954 47.0536Z" fill="white"/>
<path d="M82.7289 49.5222C82.3513 49.5222 82.0413 49.4077 81.7764 49.1786C81.5115 48.9552 81.3706 48.5943 81.3706 48.0788V43.2847H82.1484V48.0903C82.1484 48.5657 82.3513 48.8063 82.7458 48.8063C82.9092 48.8063 83.0558 48.7604 83.1741 48.6745L83.4221 49.3561C83.2136 49.4707 82.9825 49.5222 82.7232 49.5222H82.7289Z" fill="white"/>
<path d="M83.9971 45.9367C84.1154 45.5071 84.3352 45.1806 84.6734 44.9515C85.0116 44.7281 85.3948 44.6135 85.8457 44.6135C86.4882 44.6135 86.9729 44.8083 87.3054 45.2092C87.6379 45.6102 87.807 46.16 87.8183 46.8588C87.8295 46.9963 87.8295 47.2025 87.8295 47.4832L87.8183 48.1934C87.8183 48.6573 88.0043 48.875 88.3762 48.8292V49.528C88.3311 49.5394 88.2748 49.5394 88.2015 49.5394C87.5534 49.5394 87.1927 49.2129 87.1307 48.5714L87.1138 48.2736C87.0123 48.6459 86.832 48.9323 86.5614 49.1385C86.2909 49.3447 85.9922 49.4764 85.6428 49.5222C85.5075 49.5337 85.4061 49.5394 85.3384 49.5394C84.9101 49.5394 84.5494 49.4191 84.2732 49.1786C83.9971 48.9437 83.8618 48.6115 83.8618 48.1819C83.8618 47.7524 83.9914 47.4488 84.2451 47.2139C84.493 46.9791 84.8312 46.8416 85.2539 46.7786C85.5864 46.7156 86.0486 46.687 86.646 46.687L87.0236 46.6984C87.0123 46.2689 86.9221 45.9367 86.7305 45.7018C86.5389 45.467 86.2515 45.3467 85.8795 45.3467C85.6033 45.3467 85.3666 45.4097 85.1637 45.5529C84.9608 45.6961 84.8256 45.8966 84.7523 46.1658L83.9914 45.9538L83.9971 45.9367ZM84.6452 48.096C84.6452 48.3194 84.7298 48.497 84.8932 48.6172C85.051 48.749 85.2708 48.812 85.5413 48.812C85.778 48.812 86.0204 48.7547 86.2458 48.6516C86.4713 48.5485 86.6685 48.3881 86.8151 48.1877C86.9616 47.9929 87.0349 47.7581 87.0349 47.5003V47.2197C86.9729 47.2082 86.8489 47.2082 86.6967 47.2082C86.4769 47.2082 86.2458 47.2197 85.9978 47.2369C85.7499 47.254 85.547 47.277 85.4004 47.2999C85.1806 47.3457 84.9946 47.4316 84.8594 47.5633C84.7128 47.7008 84.6396 47.8784 84.6396 48.096H84.6452Z" fill="white"/>
<path d="M91.8086 46.0398C91.7804 45.8049 91.662 45.6274 91.4704 45.5071C91.2675 45.3868 91.0195 45.3295 90.7208 45.3295C90.4221 45.3295 90.1685 45.3925 89.9713 45.5243C89.7627 45.656 89.6613 45.8336 89.6613 46.0455C89.6613 46.2574 89.7458 46.4006 89.9205 46.5037C90.0952 46.6068 90.3883 46.6985 90.7997 46.7729C91.4422 46.8875 91.91 47.0421 92.2031 47.2483C92.4849 47.4602 92.6314 47.7581 92.6314 48.1533C92.6314 48.5485 92.4567 48.8865 92.1186 49.1385C91.7691 49.3905 91.3239 49.5222 90.7716 49.5222C90.2869 49.5222 89.8529 49.4077 89.4978 49.1843C89.1428 48.9609 88.9117 48.6459 88.8271 48.2278L89.5767 48.033C89.6331 48.3194 89.7684 48.5256 89.9994 48.6402C90.2305 48.7604 90.4954 48.8177 90.8166 48.8177C91.0759 48.8177 91.3126 48.7604 91.5211 48.6402C91.7297 48.5199 91.8424 48.371 91.8537 48.1762C91.8649 47.9643 91.7804 47.8039 91.6057 47.7008C91.431 47.5977 91.1492 47.5118 90.7434 47.4488C90.1403 47.3629 89.6782 47.214 89.3569 47.002C89.0357 46.7901 88.8779 46.4693 88.8779 46.0512C88.8779 45.7706 88.9624 45.5185 89.1146 45.3066C89.2668 45.0947 89.4809 44.9171 89.7627 44.7968C90.0389 44.6766 90.3601 44.6193 90.7152 44.6193C91.2168 44.6193 91.6395 44.7338 91.972 44.9572C92.3045 45.1806 92.5018 45.4956 92.5751 45.908L91.8029 46.0455L91.8086 46.0398Z" fill="white"/>
<path d="M95.2013 49.5222C94.7786 49.5222 94.4291 49.4019 94.1586 49.1499C93.8824 48.9094 93.7472 48.5371 93.7472 48.033V45.4269H92.9863V44.7109H93.7472V43.2847H94.5249L94.5362 44.7109H96.103V45.4269H94.5249V48.0502C94.5249 48.3194 94.5869 48.5084 94.7166 48.6287C94.8349 48.749 95.0096 48.8063 95.2182 48.8063C95.3816 48.8063 95.5281 48.7662 95.6578 48.686C95.7761 48.6001 95.8776 48.497 95.9396 48.371L96.537 48.875C96.3792 49.0697 96.1876 49.2301 95.9508 49.3504C95.7141 49.4707 95.4662 49.528 95.2013 49.528V49.5222Z" fill="white"/>
<path d="M97.1343 43.6799C97.1343 43.5596 97.1794 43.4451 97.2639 43.3649C97.3484 43.2847 97.4499 43.2446 97.5682 43.2446C97.6866 43.2446 97.7993 43.2847 97.8782 43.3649C97.9628 43.4508 97.9966 43.5596 97.9966 43.6799C97.9966 43.8002 97.9571 43.9033 97.8782 43.9892C97.7937 44.0751 97.6866 44.121 97.5682 44.121C97.4499 44.121 97.3484 44.0751 97.2639 43.9892C97.1794 43.9033 97.1343 43.8002 97.1343 43.6799ZM97.1681 44.7052H97.9459V49.4249H97.1681V44.7052Z" fill="white"/>
<path d="M98.6504 45.9367C98.7687 45.5071 98.9886 45.1806 99.3267 44.9515C99.6649 44.7281 100.048 44.6135 100.499 44.6135C101.141 44.6135 101.626 44.8083 101.959 45.2092C102.291 45.6102 102.46 46.16 102.472 46.8588C102.483 46.9963 102.483 47.2025 102.483 47.4832L102.472 48.1934C102.472 48.6573 102.658 48.875 103.03 48.8292V49.528C102.984 49.5394 102.928 49.5394 102.855 49.5394C102.207 49.5394 101.846 49.2129 101.784 48.5714L101.767 48.2736C101.666 48.6459 101.485 48.9323 101.215 49.1385C100.944 49.3447 100.646 49.4764 100.296 49.5222C100.161 49.5337 100.059 49.5394 99.9918 49.5394C99.5634 49.5394 99.2027 49.4191 98.9266 49.1786C98.6504 48.9437 98.5151 48.6115 98.5151 48.1819C98.5151 47.7524 98.6448 47.4488 98.8984 47.2139C99.1464 46.9791 99.4845 46.8416 99.9072 46.7786C100.24 46.7156 100.702 46.687 101.299 46.687L101.677 46.6984C101.666 46.2689 101.575 45.9367 101.384 45.7018C101.192 45.467 100.905 45.3467 100.533 45.3467C100.257 45.3467 100.02 45.4097 99.817 45.5529C99.6142 45.6961 99.4789 45.8966 99.4056 46.1658L98.6448 45.9538L98.6504 45.9367ZM99.2985 48.096C99.2985 48.3194 99.3831 48.497 99.5465 48.6172C99.7043 48.749 99.9241 48.812 100.195 48.812C100.431 48.812 100.674 48.7547 100.899 48.6516C101.125 48.5485 101.322 48.3881 101.468 48.1877C101.615 47.9929 101.688 47.7581 101.688 47.5003V47.2197C101.626 47.2082 101.502 47.2082 101.35 47.2082C101.13 47.2082 100.899 47.2197 100.651 47.2369C100.403 47.254 100.2 47.277 100.054 47.2999C99.834 47.3457 99.648 47.4316 99.5127 47.5633C99.3662 47.7008 99.2929 47.8784 99.2929 48.096H99.2985Z" fill="white"/>
<path fill-rule="evenodd" clip-rule="evenodd" d="M10.7687 1.74124C8.88633 2.50303 7.11663 3.49966 5.49911 4.69104C8.24946 9.84602 12.9386 16.41 20.7613 24.343C27.8063 30.4717 28.2233 36.1479 19.2283 39.9741C15.7002 41.4747 11.3943 42.185 7.82676 42.0761C5.11586 41.996 2.97419 41.1654 1.66665 38.5822C2.22461 39.3154 2.90092 39.8939 3.70687 40.3177C4.51281 40.7416 5.38639 40.9535 6.3276 40.9535C7.93948 40.9535 9.31466 40.375 10.4475 39.218C11.586 38.061 12.1552 36.6634 12.1552 35.031C12.1552 33.3986 11.586 32.001 10.4475 30.844C9.30902 29.687 7.93385 29.1085 6.3276 29.1085C4.72134 29.1085 3.34617 29.687 2.2077 30.844C1.06923 32.001 0.5 33.3986 0.5 35.031C0.5 37.0071 0.984694 38.8514 1.95972 40.5755C2.60222 41.7153 3.40253 42.7635 4.36628 43.7143C8.5538 47.2025 13.908 49.2989 19.7412 49.2989C20.3048 49.2989 20.8571 49.2759 21.4095 49.2416C23.2637 49.0927 25.0221 48.7547 26.696 48.2335C27.006 48.1361 27.3047 48.0387 27.6034 47.9299V47.9757C37.1395 44.6536 43.9984 35.4663 43.9984 24.6523C43.9928 11.0374 33.1323 0 19.7356 0C16.5682 0 13.5416 0.618598 10.7687 1.74124Z" fill="white"/>
<path d="M116.522 23.4896C116.99 30.9586 108.333 31.8693 103.114 31.2278C98.5884 30.6722 96.2889 26.6971 99.09 23.8504C99.8114 23.1173 100.679 22.7507 101.699 22.7507C102.72 22.7507 103.588 23.1173 104.309 23.8504C105.752 25.3167 105.752 27.688 104.309 29.1543C103.294 30.1853 101.733 30.5404 100.381 30.0364C108.31 31.7776 111.112 24.3602 105.397 20.8147C103.3 19.5145 101.305 18.4835 99.9241 16.9427C97.619 14.371 98.3517 11.3123 100.662 9.66274C103.988 7.28572 110.745 8.00169 113.744 10.6995C113.811 10.7682 113.884 10.8083 113.952 10.8083C114.127 10.8083 114.217 10.7166 114.217 10.5391V9.78875H114.826V14.1018H114.217V12.7615C114.217 12.3662 114.059 11.9596 113.744 11.53C110.3 7.25135 102.291 10.058 109.026 15.2244C111.985 17.4926 116.24 18.9704 116.522 23.4838M130.381 30.0307C131.097 29.3433 131.502 28.152 131.621 26.5482C131.897 22.848 131.903 17.0802 131.621 13.3801C131.497 11.7935 131.085 10.6365 130.381 9.92622C129.316 8.84367 127.281 8.84367 126.216 9.92622C125.511 10.6422 125.1 11.7935 124.976 13.3801C124.694 17.0802 124.7 22.8423 124.976 26.5482C125.094 28.152 125.495 29.3433 126.216 30.0307C127.264 31.0387 129.333 31.0387 130.381 30.0307ZM132.596 9.41645C136.806 11.1691 139.506 15.3619 139.506 19.9727C139.506 24.5836 136.789 28.7305 132.596 30.4774C129.868 31.6173 126.729 31.6115 124.001 30.4774C119.808 28.7305 117.091 24.5721 117.091 19.9727C117.091 15.3733 119.791 11.1691 124.001 9.41645C126.729 8.27662 129.868 8.28235 132.596 9.41645ZM89.0467 12.8302V12.1314C89.0467 11.845 89.0129 11.6045 88.9396 11.4097C88.872 11.215 88.6917 11.0431 88.4099 10.8999C88.269 10.8312 87.9702 10.7052 87.5137 10.5219C87.0572 10.3443 86.488 10.2355 85.8286 10.31C85.1917 10.3787 84.6112 10.625 84.0871 10.9515C83.484 11.3352 83.0331 11.9424 82.6612 12.7214C82.2948 13.4832 81.9398 14.5084 81.658 15.8315C81.5227 16.4731 81.4213 17.1375 81.3705 17.8133C81.3198 18.4892 81.2634 18.9933 81.2409 19.9212C81.1958 21.8113 81.286 23.0943 81.4776 24.3602C81.6692 25.626 81.9905 26.7028 82.4019 27.6021C83.2191 29.3834 84.3181 30.191 85.7215 30.0135C86.3189 29.939 86.8712 29.7099 87.4067 29.372C87.711 29.1772 88.0717 28.9367 88.4099 28.5701C88.8495 28.0832 89.0411 27.5505 89.0411 27.0179V12.8359L89.0467 12.8302ZM69.5575 25.122C69.783 25.4943 70.5833 25.5286 70.5833 24.8585V9.51955C70.5833 9.17015 70.3353 8.99832 69.845 8.99832H69.5237V8.46564H72.2797V8.99832H71.9585C71.4681 8.99832 71.2201 9.17588 71.2201 9.51955V31.3194H65.4884L52.8638 10.247C52.6045 9.81739 51.838 9.9835 51.838 10.5104V30.2655C51.838 30.6092 52.086 30.7867 52.5763 30.7867H52.8976V31.3194H50.1416V30.7867H50.4629C50.9532 30.7867 51.2012 30.6149 51.2012 30.2655V9.51955C51.2012 9.17015 50.9532 8.99832 50.4629 8.99832H50.1416V8.46564H59.5255L69.5575 25.1162V25.122ZM96.4298 28.152V30.0249C96.4298 30.4889 96.6609 30.7237 97.1174 30.7237H97.433V31.2793H90.4726C90.0837 31.2793 89.7512 31.1361 89.4694 30.8497C89.1876 30.5633 89.0467 30.2254 89.0467 29.8302V29.1314C89.0467 29.0226 88.996 28.971 88.8889 28.971C88.8213 28.971 88.7649 28.9882 88.7311 29.0226C88.1675 29.5954 87.5137 30.0765 86.7811 30.4717C86.3245 30.718 85.8399 30.9185 85.3326 31.0617C84.8254 31.2049 84.2674 31.2965 83.67 31.3309C82.0187 31.3996 80.5589 31.1705 79.2909 30.6321C77.9889 30.1681 76.8674 29.4178 75.9149 28.3811C74.9681 27.3443 74.2297 26.0957 73.7 24.6294C73.4182 23.879 73.2153 23.1402 73.0913 22.407C72.9673 21.6739 72.9053 20.8433 72.9053 19.9154C72.9053 18.9875 72.9673 18.1742 73.0913 17.4754C73.2153 16.7766 73.4013 16.0721 73.6436 15.3561C74.1001 13.9299 74.7708 12.6927 75.65 11.656C76.5292 10.6536 77.5493 9.88612 78.7103 9.35344C79.8714 8.81503 81.1564 8.55155 82.5597 8.55155C83.3318 8.55155 84.0702 8.63174 84.7747 8.79212C85.4791 8.9525 86.0935 9.14151 86.6176 9.35344C87.1474 9.56537 87.5926 9.77157 87.9646 9.97204C88.3366 10.1668 88.6071 10.3214 88.7818 10.4303H88.8889C88.996 10.4303 89.0467 10.3787 89.0467 10.2699V10.0007C89.0467 9.60546 89.1876 9.26753 89.4694 8.98114C89.7512 8.69475 90.0837 8.55155 90.4726 8.55155H97.433V9.10715H97.1174C96.6609 9.10715 96.4298 9.34199 96.4298 9.80594V28.1462V28.152Z" fill="white"/>
</g>
<defs>
<clipPath id="clip0_117_289">
<rect width="139" height="51" fill="white" transform="translate(0.5)"/>
</clipPath>
</defs>
</svg>
